<mxfile host="Electron" modified="2024-01-19T17:13:53.728Z" agent="Mozilla/5.0 (Windows NT 10.0; Win64; x64) AppleWebKit/537.36 (KHTML, like Gecko) draw.io/22.0.3 Chrome/114.0.5735.289 Electron/25.8.4 Safari/537.36" etag="0NRs232qznj3zCrbi2Wd" version="22.0.3" type="device">
  <diagram name="Page-1" id="5f0bae14-7c28-e335-631c-24af17079c00">
    <mxGraphModel dx="1098" dy="828" grid="1" gridSize="10" guides="1" tooltips="1" connect="1" arrows="1" fold="1" page="1" pageScale="1" pageWidth="1100" pageHeight="850" background="none" math="0" shadow="0">
      <root>
        <mxCell id="0" />
        <mxCell id="1" parent="0" />
        <mxCell id="Skolu0pPWkDxFBa8YF9i-3" value="" style="shape=cube;whiteSpace=wrap;html=1;boundedLbl=1;backgroundOutline=1;darkOpacity=0.05;darkOpacity2=0.1;direction=south;size=10;" vertex="1" parent="1">
          <mxGeometry x="370" y="60" width="660" height="470" as="geometry" />
        </mxCell>
        <mxCell id="Skolu0pPWkDxFBa8YF9i-6" value="&amp;lt;&amp;lt;device&amp;gt;&amp;gt;&lt;br&gt;&lt;b&gt;Poslužitelj&lt;/b&gt;" style="text;html=1;strokeColor=none;fillColor=none;align=center;verticalAlign=middle;whiteSpace=wrap;rounded=0;" vertex="1" parent="1">
          <mxGeometry x="650" y="70" width="60" height="30" as="geometry" />
        </mxCell>
        <mxCell id="Skolu0pPWkDxFBa8YF9i-7" value="" style="shape=cube;whiteSpace=wrap;html=1;boundedLbl=1;backgroundOutline=1;darkOpacity=0.05;darkOpacity2=0.1;direction=south;size=10;" vertex="1" parent="1">
          <mxGeometry x="470" y="110" width="160" height="120" as="geometry" />
        </mxCell>
        <mxCell id="Skolu0pPWkDxFBa8YF9i-9" value="&amp;lt;&amp;lt;executionEnvroment&amp;gt;&amp;gt;&lt;br&gt;&lt;b&gt;Node&lt;/b&gt;" style="text;html=1;strokeColor=none;fillColor=none;align=center;verticalAlign=middle;whiteSpace=wrap;rounded=0;" vertex="1" parent="1">
          <mxGeometry x="480" y="120" width="140" height="30" as="geometry" />
        </mxCell>
        <mxCell id="Skolu0pPWkDxFBa8YF9i-11" value="«Artifact»&lt;br&gt;&lt;b&gt;React frontend&lt;/b&gt;" style="html=1;dropTarget=0;whiteSpace=wrap;" vertex="1" parent="1">
          <mxGeometry x="480" y="150" width="120" height="60" as="geometry" />
        </mxCell>
        <mxCell id="Skolu0pPWkDxFBa8YF9i-12" value="" style="shape=module;jettyWidth=8;jettyHeight=4;" vertex="1" parent="Skolu0pPWkDxFBa8YF9i-11">
          <mxGeometry x="1" width="20" height="20" relative="1" as="geometry">
            <mxPoint x="-27" y="7" as="offset" />
          </mxGeometry>
        </mxCell>
        <mxCell id="Skolu0pPWkDxFBa8YF9i-13" value="&lt;span style=&quot;white-space: pre;&quot;&gt;&#x9;&lt;/span&gt;«executionEnviroment»" style="verticalAlign=top;align=left;spacingTop=8;spacingLeft=2;spacingRight=12;shape=cube;size=10;direction=south;fontStyle=4;html=1;whiteSpace=wrap;" vertex="1" parent="1">
          <mxGeometry x="400" y="310" width="230" height="140" as="geometry" />
        </mxCell>
        <mxCell id="Skolu0pPWkDxFBa8YF9i-14" value="&lt;b&gt;Django&lt;/b&gt;" style="text;html=1;strokeColor=none;fillColor=none;align=center;verticalAlign=middle;whiteSpace=wrap;rounded=0;" vertex="1" parent="1">
          <mxGeometry x="480" y="330" width="60" height="30" as="geometry" />
        </mxCell>
        <mxCell id="Skolu0pPWkDxFBa8YF9i-18" value="«artifact»&lt;br&gt;&lt;b&gt;Django backend&lt;/b&gt;" style="html=1;dropTarget=0;whiteSpace=wrap;" vertex="1" parent="1">
          <mxGeometry x="430" y="365" width="150" height="60" as="geometry" />
        </mxCell>
        <mxCell id="Skolu0pPWkDxFBa8YF9i-19" value="" style="shape=module;jettyWidth=8;jettyHeight=4;" vertex="1" parent="Skolu0pPWkDxFBa8YF9i-18">
          <mxGeometry x="1" width="20" height="20" relative="1" as="geometry">
            <mxPoint x="-27" y="7" as="offset" />
          </mxGeometry>
        </mxCell>
        <mxCell id="Skolu0pPWkDxFBa8YF9i-20" value="&lt;blockquote style=&quot;margin: 0 0 0 40px; border: none; padding: 0px;&quot;&gt;&lt;blockquote style=&quot;margin: 0 0 0 40px; border: none; padding: 0px;&quot;&gt;&lt;br&gt;&lt;/blockquote&gt;&lt;/blockquote&gt;" style="verticalAlign=top;align=left;spacingTop=8;spacingLeft=2;spacingRight=12;shape=cube;size=10;direction=south;fontStyle=4;html=1;whiteSpace=wrap;" vertex="1" parent="1">
          <mxGeometry x="770" y="300" width="240" height="160" as="geometry" />
        </mxCell>
        <mxCell id="Skolu0pPWkDxFBa8YF9i-21" value="&amp;lt;&amp;lt;service&amp;gt;&amp;gt;" style="text;align=center;fontStyle=1;verticalAlign=middle;spacingLeft=3;spacingRight=3;rotatable=0;points=[[0,0.5],[1,0.5]];portConstraint=eastwest;html=1;" vertex="1" parent="1">
          <mxGeometry x="850" y="309" width="80" height="26" as="geometry" />
        </mxCell>
        <mxCell id="Skolu0pPWkDxFBa8YF9i-22" value="postgres baza" style="text;html=1;strokeColor=none;fillColor=none;align=center;verticalAlign=middle;whiteSpace=wrap;rounded=0;" vertex="1" parent="1">
          <mxGeometry x="850" y="320" width="80" height="30" as="geometry" />
        </mxCell>
        <mxCell id="Skolu0pPWkDxFBa8YF9i-23" value="«Artifact»&lt;br&gt;&lt;b&gt;Baza podataka&lt;/b&gt;" style="html=1;dropTarget=0;whiteSpace=wrap;" vertex="1" parent="1">
          <mxGeometry x="800" y="360" width="180" height="80" as="geometry" />
        </mxCell>
        <mxCell id="Skolu0pPWkDxFBa8YF9i-24" value="" style="shape=module;jettyWidth=8;jettyHeight=4;" vertex="1" parent="Skolu0pPWkDxFBa8YF9i-23">
          <mxGeometry x="1" width="20" height="20" relative="1" as="geometry">
            <mxPoint x="-27" y="7" as="offset" />
          </mxGeometry>
        </mxCell>
        <mxCell id="Skolu0pPWkDxFBa8YF9i-30" value="" style="line;strokeWidth=2;direction=south;html=1;" vertex="1" parent="1">
          <mxGeometry x="580" y="230" width="10" height="80" as="geometry" />
        </mxCell>
        <mxCell id="Skolu0pPWkDxFBa8YF9i-31" value="HTTP" style="text;html=1;strokeColor=none;fillColor=none;align=center;verticalAlign=middle;whiteSpace=wrap;rounded=0;" vertex="1" parent="1">
          <mxGeometry x="520" y="250" width="60" height="30" as="geometry" />
        </mxCell>
        <mxCell id="Skolu0pPWkDxFBa8YF9i-32" value="" style="line;strokeWidth=2;html=1;" vertex="1" parent="1">
          <mxGeometry x="630" y="355" width="140" height="10" as="geometry" />
        </mxCell>
        <mxCell id="Skolu0pPWkDxFBa8YF9i-36" value="HTTP" style="text;html=1;strokeColor=none;fillColor=none;align=center;verticalAlign=middle;whiteSpace=wrap;rounded=0;" vertex="1" parent="1">
          <mxGeometry x="670" y="335" width="60" height="30" as="geometry" />
        </mxCell>
        <mxCell id="Skolu0pPWkDxFBa8YF9i-37" value="&amp;lt;&amp;lt;protocol&amp;gt;&amp;gt;" style="text;html=1;strokeColor=none;fillColor=none;align=center;verticalAlign=middle;whiteSpace=wrap;rounded=0;" vertex="1" parent="1">
          <mxGeometry x="510" y="240" width="90" height="30" as="geometry" />
        </mxCell>
        <mxCell id="Skolu0pPWkDxFBa8YF9i-38" value="&amp;lt;&amp;lt;protocol&amp;gt;&amp;gt;" style="text;html=1;strokeColor=none;fillColor=none;align=center;verticalAlign=middle;whiteSpace=wrap;rounded=0;" vertex="1" parent="1">
          <mxGeometry x="655" y="320" width="90" height="30" as="geometry" />
        </mxCell>
        <mxCell id="Skolu0pPWkDxFBa8YF9i-43" value="" style="verticalAlign=top;align=left;spacingTop=8;spacingLeft=2;spacingRight=12;shape=cube;size=10;direction=south;fontStyle=4;html=1;whiteSpace=wrap;" vertex="1" parent="1">
          <mxGeometry y="85.5" width="260" height="175" as="geometry" />
        </mxCell>
        <mxCell id="Skolu0pPWkDxFBa8YF9i-44" value="&amp;lt;&amp;lt;device&amp;gt;&amp;gt;&lt;br&gt;klijent PC" style="text;align=center;fontStyle=1;verticalAlign=middle;spacingLeft=3;spacingRight=3;strokeColor=none;rotatable=0;points=[[0,0.5],[1,0.5]];portConstraint=eastwest;html=1;" vertex="1" parent="1">
          <mxGeometry x="80" y="94" width="80" height="26" as="geometry" />
        </mxCell>
        <mxCell id="Skolu0pPWkDxFBa8YF9i-47" value="«Artifact»&lt;br&gt;&lt;b&gt;Web preglednik&lt;/b&gt;" style="html=1;dropTarget=0;whiteSpace=wrap;" vertex="1" parent="1">
          <mxGeometry x="30" y="143" width="130" height="60" as="geometry" />
        </mxCell>
        <mxCell id="Skolu0pPWkDxFBa8YF9i-48" value="" style="shape=module;jettyWidth=8;jettyHeight=4;" vertex="1" parent="Skolu0pPWkDxFBa8YF9i-47">
          <mxGeometry x="1" width="20" height="20" relative="1" as="geometry">
            <mxPoint x="-27" y="7" as="offset" />
          </mxGeometry>
        </mxCell>
        <mxCell id="Skolu0pPWkDxFBa8YF9i-50" value="" style="line;strokeWidth=2;html=1;" vertex="1" parent="1">
          <mxGeometry x="250" y="180" width="120" height="10" as="geometry" />
        </mxCell>
        <mxCell id="Skolu0pPWkDxFBa8YF9i-51" value="&amp;lt;&amp;lt;protocol&amp;gt;&amp;gt;" style="text;html=1;strokeColor=none;fillColor=none;align=center;verticalAlign=middle;whiteSpace=wrap;rounded=0;" vertex="1" parent="1">
          <mxGeometry x="270" y="143" width="90" height="30" as="geometry" />
        </mxCell>
        <mxCell id="Skolu0pPWkDxFBa8YF9i-53" value="HTTP" style="text;html=1;strokeColor=none;fillColor=none;align=center;verticalAlign=middle;whiteSpace=wrap;rounded=0;" vertex="1" parent="1">
          <mxGeometry x="285" y="155" width="60" height="30" as="geometry" />
        </mxCell>
      </root>
    </mxGraphModel>
  </diagram>
</mxfile>
